<?xml version="1.0" encoding="UTF-8"?>
<!DOCTYPE svg PUBLIC "-//W3C//DTD SVG 1.1//EN" "http://www.w3.org/Graphics/SVG/1.1/DTD/svg11.dtd">
<svg xmlns="http://www.w3.org/2000/svg" version="1.1" width="400px" height="400px" style="shape-rendering:geometricPrecision; text-rendering:geometricPrecision; image-rendering:optimizeQuality; fill-rule:evenodd; clip-rule:evenodd" xmlns:xlink="http://www.w3.org/1999/xlink">
<g><path style="opacity:0.954" fill="#020201" d="M 286.5,344.5 C 300.566,331.936 313.399,318.269 325,303.5C 326.839,296.657 324.339,292.157 317.5,290C 309.154,289.71 300.821,289.71 292.5,290C 289.947,285.908 287.613,281.742 285.5,277.5C 282.441,281.078 279.941,285.078 278,289.5C 272.366,294.727 265.866,295.893 258.5,293C 255.761,291.974 253.428,290.474 251.5,288.5C 264.03,277.769 270.364,264.103 270.5,247.5C 266.167,247.5 261.833,247.5 257.5,247.5C 254.473,247.014 251.807,245.68 249.5,243.5C 248.128,239.687 248.462,236.02 250.5,232.5C 251.167,231.167 252.167,230.167 253.5,229.5C 257.846,229.666 262.179,229.499 266.5,229C 275.873,200.825 269.873,176.491 248.5,156C 240.917,149.708 232.25,145.875 222.5,144.5C 222.099,139.563 220.766,134.896 218.5,130.5C 214.697,132.738 210.697,134.404 206.5,135.5C 211.613,132.441 216.947,129.608 222.5,127C 228.348,121.091 227.681,116.091 220.5,112C 213.117,111.797 206.45,109.63 200.5,105.5C 198.063,105.114 196.063,103.947 194.5,102C 191.5,101.333 188.5,101.333 185.5,102C 178.107,107.365 170.107,111.698 161.5,115C 159.571,118.256 159.071,121.756 160,125.5C 162.362,129.027 165.196,132.027 168.5,134.5C 167.033,133.708 165.7,133.708 164.5,134.5C 162.547,138.069 160.881,141.736 159.5,145.5C 153.989,146.588 148.656,148.255 143.5,150.5C 146.488,144.526 149.988,138.86 154,133.5C 155.044,131.285 155.71,128.952 156,126.5C 156.35,107.826 156.35,89.1595 156,70.5C 157.661,63.0166 161.494,56.85 167.5,52C 192.632,33.115 216.465,34.615 239,56.5C 241.434,59.7954 243.101,63.462 244,67.5C 244.333,85.1667 244.667,102.833 245,120.5C 245.499,132 249.166,142.333 256,151.5C 261.487,157.809 266.487,164.476 271,171.5C 276.787,165.769 283.287,164.936 290.5,169C 298.622,171.135 304.455,175.968 308,183.5C 313.695,203.109 308.695,219.443 293,232.5C 293.364,242.09 293.531,251.59 293.5,261C 292.419,266.831 290.753,272.498 288.5,278C 290.02,280.596 290.853,283.429 291,286.5C 291.5,287 292,287.5 292.5,288C 298.19,288.689 303.857,288.522 309.5,287.5C 316.306,287.489 322.14,289.823 327,294.5C 327.667,297.5 327.667,300.5 327,303.5C 315.937,317.568 303.77,330.735 290.5,343C 289.255,343.791 287.922,344.291 286.5,344.5 Z M 280.5,189.5 C 283.004,188.398 285.504,188.731 288,190.5C 290.304,196.098 289.971,201.431 287,206.5C 285.58,200.431 283.413,194.764 280.5,189.5 Z"/></g>
<g><path style="opacity:0.986" fill="#294071" d="M 340.5,132.5 C 334.587,137.291 327.92,140.791 320.5,143C 304.833,143.667 289.167,143.667 273.5,143C 272,141.5 270.5,140 269,138.5C 268.333,123.167 268.333,107.833 269,92.5C 276.425,68.0307 292.925,56.8641 318.5,59C 340.428,64.6789 352.095,78.8455 353.5,101.5C 353.277,113.607 348.944,123.94 340.5,132.5 Z"/></g>
<g><path style="opacity:0.982" fill="#dc4714" d="M 90.5,59.5 C 108.369,56.8401 122.869,62.5068 134,76.5C 146.675,98.9088 143.509,118.742 124.5,136C 102.091,148.675 82.2578,145.509 65,126.5C 55.8003,111.232 55.1337,95.5654 63,79.5C 69.7079,69.2497 78.8746,62.583 90.5,59.5 Z"/></g>
<g><path style="opacity:1" fill="#fafbfc" d="M 330.5,70.5 C 332.673,75.055 331.34,77.7216 326.5,78.5C 320.261,77.5356 315.761,79.8689 313,85.5C 312.333,89.8333 312.333,94.1667 313,98.5C 316.394,99.4558 319.894,99.7892 323.5,99.5C 326.167,102.5 326.167,105.5 323.5,108.5C 319.833,108.5 316.167,108.5 312.5,108.5C 312.666,114.176 312.499,119.843 312,125.5C 306.9,136.633 298.4,140.633 286.5,137.5C 283.612,134.396 283.945,131.729 287.5,129.5C 301.643,129.625 306.976,122.625 303.5,108.5C 299.833,108.5 296.167,108.5 292.5,108.5C 289.833,105.5 289.833,102.5 292.5,99.5C 296.167,99.5 299.833,99.5 303.5,99.5C 300.145,85.0437 305.145,74.877 318.5,69C 322.695,68.191 326.695,68.691 330.5,70.5 Z"/></g>
<g><path style="opacity:1" fill="#fef6f3" d="M 110.5,71.5 C 116.83,70.6662 119.663,73.3329 119,79.5C 115.667,83.5 112.333,83.5 109,79.5C 108.109,76.5024 108.609,73.8357 110.5,71.5 Z"/></g>
<g><path style="opacity:1" fill="#3c6db4" d="M 330.5,70.5 C 341.292,75.4266 345.125,83.7599 342,95.5C 338.466,103.528 332.299,107.861 323.5,108.5C 326.167,105.5 326.167,102.5 323.5,99.5C 331.7,97.7792 334.866,92.7792 333,84.5C 331.564,81.5581 329.397,79.5581 326.5,78.5C 331.34,77.7216 332.673,75.055 330.5,70.5 Z"/></g>
<g><path style="opacity:1" fill="#fef6f4" d="M 92.5,77.5 C 96.8461,77.3343 101.179,77.501 105.5,78C 107.754,83.2421 111.754,85.5754 117.5,85C 121.547,88.9728 123.547,93.8062 123.5,99.5C 120.833,99.5 118.167,99.5 115.5,99.5C 112.621,87.4928 105.121,83.1595 93,86.5C 91.5,84.3333 90,82.1667 88.5,80C 89.8584,79.0656 91.1917,78.2323 92.5,77.5 Z"/></g>
<g><path style="opacity:1" fill="#294071" d="M 326.5,78.5 C 329.397,79.5581 331.564,81.5581 333,84.5C 334.866,92.7792 331.7,97.7792 323.5,99.5C 319.894,99.7892 316.394,99.4558 313,98.5C 312.333,94.1667 312.333,89.8333 313,85.5C 315.761,79.8689 320.261,77.5356 326.5,78.5 Z"/></g>
<g><path style="opacity:1" fill="#c4c5c7" d="M 222.5,90.5 C 214.856,86.6938 206.856,85.6938 198.5,87.5C 203.002,79.313 209.335,77.4797 217.5,82C 220.596,84.0287 222.262,86.862 222.5,90.5 Z"/></g>
<g><path style="opacity:1" fill="#fef5f2" d="M 84.5,81.5 C 87.0683,82.5737 88.7349,84.5737 89.5,87.5C 81.5279,96.6517 81.5279,105.818 89.5,115C 88.7854,117.605 87.4521,119.772 85.5,121.5C 76.9084,115.335 74.4084,107.335 78,97.5C 77.1667,96.6667 76.3333,95.8333 75.5,95C 77.63,89.9027 80.63,85.4027 84.5,81.5 Z"/></g>
<g><path style="opacity:1" fill="#efefef" d="M 222.5,90.5 C 224.896,98.0541 223.229,104.554 217.5,110C 214.86,110.839 212.527,110.339 210.5,108.5C 216.839,105.154 218.673,100.154 216,93.5C 208.358,87.2312 203.192,88.8978 200.5,98.5C 200.594,100.689 201.261,102.689 202.5,104.5C 202.043,105.298 201.376,105.631 200.5,105.5C 196.106,99.9544 195.439,93.9544 198.5,87.5C 206.856,85.6938 214.856,86.6938 222.5,90.5 Z"/></g>
<g><path style="opacity:1" fill="#e0e1e1" d="M 166.5,81.5 C 175.94,82.7833 180.606,88.2833 180.5,98C 181.008,101.228 180.008,103.728 177.5,105.5C 177.951,101.87 177.451,98.2036 176,94.5C 171.939,90.2635 168.272,90.5968 165,95.5C 163.228,101.467 164.728,106.301 169.5,110C 168.391,110.638 167.225,111.138 166,111.5C 161.999,107.167 160.166,102 160.5,96C 160.17,90.1657 162.17,85.3324 166.5,81.5 Z"/></g>
<g><path style="opacity:1" fill="#fef3ef" d="M 68.5,95.5 C 76.3017,95.7874 78.3017,99.2874 74.5,106C 65.0508,106.866 63.0508,103.366 68.5,95.5 Z"/></g>
<g><path style="opacity:1" fill="#3b6db4" d="M 292.5,99.5 C 289.833,102.5 289.833,105.5 292.5,108.5C 284.725,110.1 281.558,114.766 283,122.5C 284.75,124.734 286.25,127.068 287.5,129.5C 283.945,131.729 283.612,134.396 286.5,137.5C 275.488,132.809 271.321,124.476 274,112.5C 277.614,104.366 283.781,100.032 292.5,99.5 Z"/></g>
<g><path style="opacity:1" fill="#fef3f0" d="M 115.5,102.5 C 118.167,102.5 120.833,102.5 123.5,102.5C 123.328,108.349 121.328,113.516 117.5,118C 111.604,117.276 107.604,119.609 105.5,125C 99.5743,126.11 93.9077,125.444 88.5,123C 89.5729,120.343 91.2395,118.177 93.5,116.5C 105.706,119.401 113.039,114.734 115.5,102.5 Z"/></g>
<g><path style="opacity:1" fill="#e6be5c" d="M 200.5,105.5 C 206.45,109.63 213.117,111.797 220.5,112C 227.681,116.091 228.348,121.091 222.5,127C 216.947,129.608 211.613,132.441 206.5,135.5C 196.329,138.177 185.996,139.01 175.5,138C 173.114,136.807 170.78,135.64 168.5,134.5C 165.196,132.027 162.362,129.027 160,125.5C 159.071,121.756 159.571,118.256 161.5,115C 170.107,111.698 178.107,107.365 185.5,102C 188.5,101.333 191.5,101.333 194.5,102C 196.063,103.947 198.063,105.114 200.5,105.5 Z"/></g>
<g><path style="opacity:1" fill="#284071" d="M 292.5,108.5 C 296.167,108.5 299.833,108.5 303.5,108.5C 306.976,122.625 301.643,129.625 287.5,129.5C 286.25,127.068 284.75,124.734 283,122.5C 281.558,114.766 284.725,110.1 292.5,108.5 Z"/></g>
<g><path style="opacity:1" fill="#fef5f3" d="M 111.5,120.5 C 119.818,120.987 121.485,124.487 116.5,131C 110,132.5 107.5,130 109,123.5C 109.698,122.309 110.531,121.309 111.5,120.5 Z"/></g>
<g><path style="opacity:1" fill="#282113" d="M 215.5,122.5 C 217.379,122.393 217.712,122.893 216.5,124C 200.25,129.132 183.583,130.799 166.5,129C 164.545,128.047 162.878,126.713 161.5,125C 163.88,126.282 166.547,127.282 169.5,128C 180.884,128.42 192.218,127.753 203.5,126C 207.868,125.707 211.868,124.54 215.5,122.5 Z"/></g>
<g><path style="opacity:1" fill="#f3f4f5" d="M 222.5,144.5 C 213.496,142.75 204.83,143.75 196.5,147.5C 188.751,145.75 180.917,144.416 173,143.5C 168.395,143.589 163.895,144.255 159.5,145.5C 160.881,141.736 162.547,138.069 164.5,134.5C 165.7,133.708 167.033,133.708 168.5,134.5C 169.894,136.708 171.894,138.208 174.5,139C 181.833,139.667 189.167,139.667 196.5,139C 200.163,138.428 203.497,137.262 206.5,135.5C 210.697,134.404 214.697,132.738 218.5,130.5C 220.766,134.896 222.099,139.563 222.5,144.5 Z"/></g>
<g><path style="opacity:0.301" fill="#3c6eb6" d="M 340.5,132.5 C 342.674,132.92 344.674,132.92 346.5,132.5C 347.429,133.689 347.762,135.022 347.5,136.5C 345.396,136.799 343.396,136.466 341.5,135.5C 340.873,134.583 340.539,133.583 340.5,132.5 Z"/></g>
<g><path style="opacity:1" fill="#2c251b" d="M 168.5,134.5 C 170.78,135.64 173.114,136.807 175.5,138C 185.996,139.01 196.329,138.177 206.5,135.5C 203.497,137.262 200.163,138.428 196.5,139C 189.167,139.667 181.833,139.667 174.5,139C 171.894,138.208 169.894,136.708 168.5,134.5 Z"/></g>
<g><path style="opacity:1" fill="#2d82f4" d="M 196.5,147.5 C 202.628,150.063 208.295,153.397 213.5,157.5C 212.527,157.987 211.527,158.487 210.5,159C 217.919,167.799 221.586,177.799 221.5,189C 220.939,197.669 219.605,206.169 217.5,214.5C 215.659,212.151 214.326,209.485 213.5,206.5C 214.637,196.541 214.637,186.708 213.5,177C 205.468,157.635 190.968,147.802 170,147.5C 146.713,151.95 134.213,165.95 132.5,189.5C 133.5,189.5 134.5,189.5 135.5,189.5C 133.525,191.137 131.525,192.804 129.5,194.5C 127.983,194.511 126.816,195.177 126,196.5C 124.741,186.224 126.241,176.391 130.5,167C 134.413,161.282 138.413,155.782 142.5,150.5C 142.833,150.5 143.167,150.5 143.5,150.5C 148.656,148.255 153.989,146.588 159.5,145.5C 163.895,144.255 168.395,143.589 173,143.5C 180.917,144.416 188.751,145.75 196.5,147.5 Z"/></g>
<g><path style="opacity:1" fill="#268aef" d="M 213.5,206.5 C 210.936,203.72 208.603,200.72 206.5,197.5C 209.34,191.041 209.007,184.708 205.5,178.5C 205.709,177.914 206.043,177.414 206.5,177C 203.215,172.34 199.882,167.673 196.5,163C 175.526,148.96 157.693,152.126 143,172.5C 141.015,176.259 139.848,180.259 139.5,184.5C 137.633,185.76 136.3,187.427 135.5,189.5C 134.5,189.5 133.5,189.5 132.5,189.5C 134.213,165.95 146.713,151.95 170,147.5C 190.968,147.802 205.468,157.635 213.5,177C 214.637,186.708 214.637,196.541 213.5,206.5 Z"/></g>
<g><path style="opacity:1" fill="#2291e9" d="M 206.5,197.5 C 204.817,195.486 202.817,193.82 200.5,192.5C 199.473,190.806 198.139,189.473 196.5,188.5C 198.144,188.286 199.644,188.62 201,189.5C 202.373,181.12 199.873,174.12 193.5,168.5C 176.466,156.067 161.299,158.4 148,175.5C 147.727,177.329 146.893,178.829 145.5,180C 146.094,180.464 146.761,180.631 147.5,180.5C 145.103,182.195 142.437,183.528 139.5,184.5C 139.848,180.259 141.015,176.259 143,172.5C 157.693,152.126 175.526,148.96 196.5,163C 199.882,167.673 203.215,172.34 206.5,177C 206.043,177.414 205.709,177.914 205.5,178.5C 209.007,184.708 209.34,191.041 206.5,197.5 Z"/></g>
<g><path style="opacity:1" fill="#07ab22" d="M 222.5,144.5 C 232.25,145.875 240.917,149.708 248.5,156C 269.873,176.491 275.873,200.825 266.5,229C 262.179,229.499 257.846,229.666 253.5,229.5C 256.782,229.019 259.949,228.019 263,226.5C 264.908,221.71 266.741,216.877 268.5,212C 268.309,182.79 253.476,166.29 224,162.5C 223.333,163.167 223.333,163.833 224,164.5C 227.101,168.391 229.934,172.391 232.5,176.5C 234.526,180.581 235.526,184.915 235.5,189.5C 232.757,181.347 228.924,173.68 224,166.5C 220.922,162.915 217.422,159.915 213.5,157.5C 208.295,153.397 202.628,150.063 196.5,147.5C 204.83,143.75 213.496,142.75 222.5,144.5 Z"/></g>
<g><path style="opacity:1" fill="#189ce3" d="M 196.5,188.5 C 196.611,187.883 196.944,187.383 197.5,187C 195.654,185.97 193.987,184.804 192.5,183.5C 191.255,180.013 189.255,177.013 186.5,174.5C 182.91,174.033 179.91,172.533 177.5,170C 173.739,169.262 170.072,169.595 166.5,171C 163.542,173.305 160.542,175.472 157.5,177.5C 154.275,178.807 150.941,179.807 147.5,180.5C 146.761,180.631 146.094,180.464 145.5,180C 146.893,178.829 147.727,177.329 148,175.5C 161.299,158.4 176.466,156.067 193.5,168.5C 199.873,174.12 202.373,181.12 201,189.5C 199.644,188.62 198.144,188.286 196.5,188.5 Z"/></g>
<g><path style="opacity:1" fill="#3575fa" d="M 213.5,157.5 C 217.422,159.915 220.922,162.915 224,166.5C 228.924,173.68 232.757,181.347 235.5,189.5C 237.326,204.529 233.992,218.196 225.5,230.5C 224.272,231.306 223.272,232.306 222.5,233.5C 221.016,227.234 219.349,220.901 217.5,214.5C 219.605,206.169 220.939,197.669 221.5,189C 221.586,177.799 217.919,167.799 210.5,159C 211.527,158.487 212.527,157.987 213.5,157.5 Z"/></g>
<g><path style="opacity:1" fill="#07b921" d="M 253.5,229.5 C 252.167,230.167 251.167,231.167 250.5,232.5C 248.462,236.02 248.128,239.687 249.5,243.5C 250.536,245.391 250.536,247.224 249.5,249C 240.322,253.881 230.655,256.047 220.5,255.5C 217.338,254.96 214.338,253.96 211.5,252.5C 210.914,252.709 210.414,253.043 210,253.5C 207.696,251.932 205.196,250.765 202.5,250C 204.881,249.777 206.547,248.61 207.5,246.5C 213.06,242.875 218.06,238.542 222.5,233.5C 223.272,232.306 224.272,231.306 225.5,230.5C 224.909,233.614 223.242,236.114 220.5,238C 239.965,239.2 252.131,230.367 257,211.5C 258.731,193.266 251.065,180.932 234,174.5C 233.283,175.044 232.783,175.711 232.5,176.5C 229.934,172.391 227.101,168.391 224,164.5C 223.333,163.833 223.333,163.167 224,162.5C 253.476,166.29 268.309,182.79 268.5,212C 266.741,216.877 264.908,221.71 263,226.5C 259.949,228.019 256.782,229.019 253.5,229.5 Z"/></g>
<g><path style="opacity:1" fill="#11a4dd" d="M 192.5,183.5 C 181.447,178.348 169.781,176.348 157.5,177.5C 160.542,175.472 163.542,173.305 166.5,171C 170.072,169.595 173.739,169.262 177.5,170C 179.91,172.533 182.91,174.033 186.5,174.5C 189.255,177.013 191.255,180.013 192.5,183.5 Z"/></g>
<g><path style="opacity:1" fill="#4a75c5" d="M 157.5,177.5 C 169.781,176.348 181.447,178.348 192.5,183.5C 193.987,184.804 195.654,185.97 197.5,187C 196.944,187.383 196.611,187.883 196.5,188.5C 175.898,174.86 155.564,175.193 135.5,189.5C 136.3,187.427 137.633,185.76 139.5,184.5C 142.437,183.528 145.103,182.195 147.5,180.5C 150.941,179.807 154.275,178.807 157.5,177.5 Z"/></g>
<g><path style="opacity:1" fill="#14c723" d="M 225.5,230.5 C 233.992,218.196 237.326,204.529 235.5,189.5C 235.526,184.915 234.526,180.581 232.5,176.5C 232.783,175.711 233.283,175.044 234,174.5C 251.065,180.932 258.731,193.266 257,211.5C 252.131,230.367 239.965,239.2 220.5,238C 223.242,236.114 224.909,233.614 225.5,230.5 Z"/></g>
<g><path style="opacity:0.972" fill="#3473f6" d="M 142.5,150.5 C 138.413,155.782 134.413,161.282 130.5,167C 126.241,176.391 124.741,186.224 126,196.5C 126.816,195.177 127.983,194.511 129.5,194.5C 122.971,201.56 117.971,209.56 114.5,218.5C 113.671,215.185 112.838,211.852 112,208.5C 111.617,207.944 111.117,207.611 110.5,207.5C 110.303,201.455 110.637,195.455 111.5,189.5C 111.414,188.504 111.748,187.671 112.5,187C 116.846,187.081 120.013,185.247 122,181.5C 122.804,177.263 122.304,173.263 120.5,169.5C 122.58,165.914 125.246,162.747 128.5,160C 132.676,156.081 137.343,152.914 142.5,150.5 Z"/></g>
<g><path style="opacity:1" fill="#f5221b" d="M 196.5,188.5 C 198.139,189.473 199.473,190.806 200.5,192.5C 184.718,194.418 171.385,201.085 160.5,212.5C 160.167,212.5 159.833,212.5 159.5,212.5C 153.256,218.271 148.756,225.271 146,233.5C 145.768,232.263 145.268,231.263 144.5,230.5C 143.733,227.265 141.733,225.099 138.5,224C 131.833,223.667 125.167,223.333 118.5,223C 116.249,222.252 114.916,220.752 114.5,218.5C 117.971,209.56 122.971,201.56 129.5,194.5C 131.525,192.804 133.525,191.137 135.5,189.5C 155.564,175.193 175.898,174.86 196.5,188.5 Z"/></g>
<g><path style="opacity:1" fill="#fdfdfc" d="M 200.5,192.5 C 202.817,193.82 204.817,195.486 206.5,197.5C 208.603,200.72 210.936,203.72 213.5,206.5C 214.326,209.485 215.659,212.151 217.5,214.5C 219.349,220.901 221.016,227.234 222.5,233.5C 218.06,238.542 213.06,242.875 207.5,246.5C 199.02,250.77 190.02,253.436 180.5,254.5C 179.167,253.833 178.167,252.833 177.5,251.5C 178.428,236.41 180.095,221.41 182.5,206.5C 179.27,206.561 177.437,208.228 177,211.5C 174.843,222.756 173.343,234.089 172.5,245.5C 168.732,240.965 165.732,235.965 163.5,230.5C 161.659,224.642 160.659,218.642 160.5,212.5C 171.385,201.085 184.718,194.418 200.5,192.5 Z"/></g>
<g><path style="opacity:1" fill="#c6c7c8" d="M 177.5,251.5 C 176.5,250.833 175.5,250.167 174.5,249.5C 174.267,247.938 173.6,246.605 172.5,245.5C 173.343,234.089 174.843,222.756 177,211.5C 177.437,208.228 179.27,206.561 182.5,206.5C 180.095,221.41 178.428,236.41 177.5,251.5 Z"/></g>
<g><path style="opacity:1" fill="#fca804" d="M 159.5,212.5 C 159.833,212.5 160.167,212.5 160.5,212.5C 160.659,218.642 161.659,224.642 163.5,230.5C 153.975,246.892 153.308,263.725 161.5,281C 161.43,281.765 161.097,282.265 160.5,282.5C 145.895,266.854 142.395,248.854 150,228.5C 152.592,222.761 155.759,217.427 159.5,212.5 Z"/></g>
<g><path style="opacity:1" fill="#064c10" d="M 250.5,232.5 C 248.462,236.02 248.128,239.687 249.5,243.5C 248.883,243.389 248.383,243.056 248,242.5C 247.333,239.833 247.333,237.167 248,234.5C 248.417,233.244 249.25,232.577 250.5,232.5 Z"/></g>
<g><path style="opacity:1" fill="#f7271e" d="M 167.5,290.5 C 173.195,294.014 179.195,297.014 185.5,299.5C 179.71,302.857 173.376,304.19 166.5,303.5C 163.167,303.333 159.833,303.167 156.5,303C 152.835,301.722 149.168,300.556 145.5,299.5C 137.943,295.276 131.276,289.943 125.5,283.5C 120.545,277.202 116.879,270.202 114.5,262.5C 111.792,255.002 111.125,247.336 112.5,239.5C 113.183,239.863 113.85,240.196 114.5,240.5C 122.656,241.657 130.99,241.823 139.5,241C 140.056,240.617 140.389,240.117 140.5,239.5C 141.583,239.461 142.583,239.127 143.5,238.5C 142.798,253.547 146.632,267.214 155,279.5C 158.761,283.77 162.928,287.437 167.5,290.5 Z"/></g>
<g><path style="opacity:1" fill="#751713" d="M 140.5,239.5 C 140.389,240.117 140.056,240.617 139.5,241C 130.99,241.823 122.656,241.657 114.5,240.5C 123.221,240.775 131.887,240.442 140.5,239.5 Z"/></g>
<g><path style="opacity:1" fill="#fcbb04" d="M 163.5,230.5 C 165.732,235.965 168.732,240.965 172.5,245.5C 173.6,246.605 174.267,247.938 174.5,249.5C 173.206,248.71 172.039,247.71 171,246.5C 165.51,271.39 174.677,288.224 198.5,297C 227.703,300.576 244.703,287.909 249.5,259C 249.272,258.601 248.938,258.435 248.5,258.5C 249.315,257.163 250.482,256.163 252,255.5C 251.637,281.206 238.804,296.706 213.5,302C 214.094,302.464 214.761,302.631 215.5,302.5C 205.35,304.236 195.35,303.236 185.5,299.5C 179.195,297.014 173.195,294.014 167.5,290.5C 165.167,287.833 162.833,285.167 160.5,282.5C 161.097,282.265 161.43,281.765 161.5,281C 153.308,263.725 153.975,246.892 163.5,230.5 Z"/></g>
<g><path style="opacity:1" fill="#fbc800" d="M 174.5,249.5 C 175.5,250.167 176.5,250.833 177.5,251.5C 178.167,252.833 179.167,253.833 180.5,254.5C 181.5,255.833 182.5,257.167 183.5,258.5C 181.284,257.797 179.451,256.464 178,254.5C 176.604,272.824 184.771,284.324 202.5,289C 221.055,291.078 233.388,283.411 239.5,266C 238.906,265.536 238.239,265.369 237.5,265.5C 241.3,263.43 244.966,261.097 248.5,258.5C 248.938,258.435 249.272,258.601 249.5,259C 244.703,287.909 227.703,300.576 198.5,297C 174.677,288.224 165.51,271.39 171,246.5C 172.039,247.71 173.206,248.71 174.5,249.5 Z"/></g>
<g><path style="opacity:1" fill="#10a721" d="M 249.5,243.5 C 251.807,245.68 254.473,247.014 257.5,247.5C 249.187,257.79 238.521,264.457 225.5,267.5C 217.523,268.855 209.523,268.688 201.5,267C 195.106,264.823 189.106,261.989 183.5,258.5C 182.5,257.167 181.5,255.833 180.5,254.5C 190.02,253.436 199.02,250.77 207.5,246.5C 206.547,248.61 204.881,249.777 202.5,250C 205.196,250.765 207.696,251.932 210,253.5C 210.414,253.043 210.914,252.709 211.5,252.5C 214.338,253.96 217.338,254.96 220.5,255.5C 230.655,256.047 240.322,253.881 249.5,249C 250.536,247.224 250.536,245.391 249.5,243.5 Z"/></g>
<g><path style="opacity:1" fill="#f9b105" d="M 257.5,247.5 C 261.833,247.5 266.167,247.5 270.5,247.5C 270.364,264.103 264.03,277.769 251.5,288.5C 243.731,294.596 235.065,298.929 225.5,301.5C 224.508,301.328 223.842,301.662 223.5,302.5C 220.833,302.5 218.167,302.5 215.5,302.5C 214.761,302.631 214.094,302.464 213.5,302C 238.804,296.706 251.637,281.206 252,255.5C 250.482,256.163 249.315,257.163 248.5,258.5C 244.966,261.097 241.3,263.43 237.5,265.5C 233.566,267.731 229.566,268.397 225.5,267.5C 238.521,264.457 249.187,257.79 257.5,247.5 Z"/></g>
<g><path style="opacity:1" fill="#f7d204" d="M 183.5,258.5 C 189.106,261.989 195.106,264.823 201.5,267C 209.523,268.688 217.523,268.855 225.5,267.5C 229.566,268.397 233.566,267.731 237.5,265.5C 238.239,265.369 238.906,265.536 239.5,266C 233.388,283.411 221.055,291.078 202.5,289C 184.771,284.324 176.604,272.824 178,254.5C 179.451,256.464 181.284,257.797 183.5,258.5 Z"/></g>
<g><path style="opacity:1" fill="#e6be5c" d="M 114.5,262.5 C 116.879,270.202 120.545,277.202 125.5,283.5C 128.288,290.363 130.788,297.363 133,304.5C 134.121,312.304 134.955,320.138 135.5,328C 136.335,337.677 132.335,344.344 123.5,348C 118.572,349.418 113.572,349.751 108.5,349C 85.4673,339.736 64.9673,326.57 47,309.5C 44.5044,304.644 45.3378,300.478 49.5,297C 56.0742,295.394 62.5742,293.561 69,291.5C 70.2148,286.949 70.8814,282.282 71,277.5C 71.8333,276.667 72.6667,275.833 73.5,275C 79.9113,274.61 86.2447,274.943 92.5,276C 96.5222,270.98 100.856,266.314 105.5,262C 108.733,259.916 111.733,260.082 114.5,262.5 Z"/></g>
<g><path style="opacity:1" fill="#f9e200" d="M 185.5,261.5 C 199.068,269.597 213.734,272.43 229.5,270C 219.522,282.573 207.522,284.906 193.5,277C 189.089,272.677 186.422,267.51 185.5,261.5 Z"/></g>
<g><path style="opacity:1" fill="#c7311d" d="M 159.5,212.5 C 155.759,217.427 152.592,222.761 150,228.5C 142.395,248.854 145.895,266.854 160.5,282.5C 162.833,285.167 165.167,287.833 167.5,290.5C 162.928,287.437 158.761,283.77 155,279.5C 146.632,267.214 142.798,253.547 143.5,238.5C 142.583,239.127 141.583,239.461 140.5,239.5C 141.458,238.038 142.624,236.705 144,235.5C 144.494,233.866 144.66,232.199 144.5,230.5C 145.268,231.263 145.768,232.263 146,233.5C 148.756,225.271 153.256,218.271 159.5,212.5 Z"/></g>
<g><path style="opacity:1" fill="#e6be5c" d="M 286.5,344.5 C 281.882,346.815 277.549,349.648 273.5,353C 247.04,365.412 231.54,357.245 227,328.5C 225.693,319.552 225.193,310.552 225.5,301.5C 235.065,298.929 243.731,294.596 251.5,288.5C 253.428,290.474 255.761,291.974 258.5,293C 265.866,295.893 272.366,294.727 278,289.5C 279.941,285.078 282.441,281.078 285.5,277.5C 287.613,281.742 289.947,285.908 292.5,290C 300.821,289.71 309.154,289.71 317.5,290C 324.339,292.157 326.839,296.657 325,303.5C 313.399,318.269 300.566,331.936 286.5,344.5 Z"/></g>
<g><path style="opacity:0.966" fill="#060403" d="M 120.5,169.5 C 122.304,173.263 122.804,177.263 122,181.5C 120.013,185.247 116.846,187.081 112.5,187C 111.748,187.671 111.414,188.504 111.5,189.5C 102.719,189.447 98.5525,193.78 99,202.5C 102.94,204.807 106.274,207.807 109,211.5C 109.791,210.255 110.291,208.922 110.5,207.5C 111.117,207.611 111.617,207.944 112,208.5C 112.838,211.852 113.671,215.185 114.5,218.5C 114.916,220.752 116.249,222.252 118.5,223C 125.167,223.333 131.833,223.667 138.5,224C 141.733,225.099 143.733,227.265 144.5,230.5C 144.66,232.199 144.494,233.866 144,235.5C 142.624,236.705 141.458,238.038 140.5,239.5C 131.887,240.442 123.221,240.775 114.5,240.5C 113.85,240.196 113.183,239.863 112.5,239.5C 111.125,247.336 111.792,255.002 114.5,262.5C 111.733,260.082 108.733,259.916 105.5,262C 100.856,266.314 96.5222,270.98 92.5,276C 86.2447,274.943 79.9113,274.61 73.5,275C 72.6667,275.833 71.8333,276.667 71,277.5C 70.8814,282.282 70.2148,286.949 69,291.5C 62.5742,293.561 56.0742,295.394 49.5,297C 45.3378,300.478 44.5044,304.644 47,309.5C 64.9673,326.57 85.4673,339.736 108.5,349C 113.572,349.751 118.572,349.418 123.5,348C 132.335,344.344 136.335,337.677 135.5,328C 134.955,320.138 134.121,312.304 133,304.5C 130.788,297.363 128.288,290.363 125.5,283.5C 131.276,289.943 137.943,295.276 145.5,299.5C 147.591,302.464 147.925,305.631 146.5,309C 146.905,309.945 147.572,310.612 148.5,311C 173.586,320.069 198.419,319.569 223,309.5C 223.497,307.19 223.663,304.857 223.5,302.5C 223.842,301.662 224.508,301.328 225.5,301.5C 225.193,310.552 225.693,319.552 227,328.5C 231.54,357.245 247.04,365.412 273.5,353C 277.549,349.648 281.882,346.815 286.5,344.5C 278.045,354.061 267.379,359.394 254.5,360.5C 240.664,359.81 231.664,352.976 227.5,340C 204.388,341.622 181.388,339.622 158.5,334C 153.722,332.444 149.055,330.61 144.5,328.5C 139.391,334.536 134.391,340.702 129.5,347C 120.032,352.625 110.366,352.958 100.5,348C 80.6987,338.185 62.532,326.019 46,311.5C 41.6003,303.699 43.4337,297.866 51.5,294C 56.5,293 61.5,292 66.5,291C 68.7813,288.293 69.1146,285.293 67.5,282C 68.5697,279.194 69.903,276.527 71.5,274C 73.7017,272.978 76.0351,272.478 78.5,272.5C 83.1385,273.553 87.8052,274.053 92.5,274C 95.6667,270.167 98.8333,266.333 102,262.5C 102.195,253.785 102.695,245.119 103.5,236.5C 99.3431,232.174 95.3431,227.674 91.5,223C 82.3695,218.705 77.3695,211.538 76.5,201.5C 78.6369,193.591 81.4702,185.924 85,178.5C 95.4273,169.585 107.261,166.585 120.5,169.5 Z"/></g>
<g><path style="opacity:1" fill="#faf9f8" d="M 145.5,299.5 C 149.168,300.556 152.835,301.722 156.5,303C 159.833,303.167 163.167,303.333 166.5,303.5C 173.376,304.19 179.71,302.857 185.5,299.5C 195.35,303.236 205.35,304.236 215.5,302.5C 218.167,302.5 220.833,302.5 223.5,302.5C 223.663,304.857 223.497,307.19 223,309.5C 198.419,319.569 173.586,320.069 148.5,311C 147.572,310.612 146.905,309.945 146.5,309C 147.925,305.631 147.591,302.464 145.5,299.5 Z"/></g>
<g><path style="opacity:1" fill="#e7bf5d" d="M 135.5,317.5 C 139.713,317.651 142.713,319.985 144.5,324.5C 142.236,326.946 140.069,329.613 138,332.5C 137.911,327.234 137.077,322.234 135.5,317.5 Z"/></g>
</svg>
