<?xml version="1.0" encoding="UTF-8"?>
<!-- Generator: visioncortex VTracer 0.6.5 -->
<svg version="1.1" xmlns="http://www.w3.org/2000/svg" width="400" height="400">
<path d="M0 0 C0.76 0.19 1.53 0.39 2.31 0.59 C23.44 6 45.99 15.71 62 31 C62 31.66 62 32.32 62 33 C62.59 33.26 63.18 33.53 63.78 33.8 C66.08 35.04 67.61 36.35 69.45 38.19 C70.07 38.8 70.69 39.42 71.33 40.05 C71.96 40.7 72.6 41.34 73.25 42 C73.9 42.64 74.55 43.28 75.22 43.95 C75.83 44.56 76.45 45.18 77.08 45.81 C77.64 46.38 78.2 46.94 78.78 47.52 C80 49 80 49 80 51 C80.66 51 81.32 51 82 51 C83.29 52.46 83.29 52.46 84.62 54.38 C85.07 55 85.52 55.63 85.98 56.27 C87 58 87 58 87 60 C87.66 60 88.32 60 89 60 C90.13 61.43 90.13 61.43 91.36 63.45 C91.81 64.19 92.26 64.93 92.73 65.69 C93.21 66.49 93.69 67.3 94.19 68.12 C94.68 68.94 95.17 69.76 95.68 70.61 C115.33 103.61 124.24 141.88 117 180 C116.85 180.79 116.7 181.59 116.54 182.41 C114.07 194.92 110.3 206.42 104.94 217.98 C104.13 219.73 103.35 221.49 102.57 223.25 C96.86 235.63 88.21 246.64 79.44 257 C79.19 257.3 79.19 257.3 77.92 258.8 C75.66 261.4 74.33 262.89 71 264 C70.73 264.57 70.45 265.15 70.17 265.74 C68.53 268.91 66.02 270.88 63.31 273.12 C62.74 273.6 62.16 274.08 61.57 274.58 C48.32 285.42 33.21 295.15 16.75 300.14 C14.14 300.96 11.7 301.93 9.19 303 C2.67 305.66 -4.14 307.44 -11 309 C-11.76 309.18 -12.52 309.36 -13.31 309.55 C-21.97 311.38 -30.63 311.4 -39.44 311.38 C-40.24 311.37 -41.04 311.37 -41.86 311.37 C-54.31 311.33 -66 310.58 -78 307 C-78.84 306.76 -79.68 306.52 -80.54 306.27 C-98.19 301.1 -115.15 293.98 -130 283 C-130.78 282.43 -131.57 281.85 -132.38 281.26 C-138.22 276.85 -143.64 271.99 -149 267 C-149.79 266.29 -150.58 265.57 -151.4 264.84 C-177.56 240.2 -196.08 200.23 -197.23 164.28 C-198.35 119.83 -186.56 79.01 -155.75 45.96 C-154 44 -154 44 -153 42 C-152.34 42 -151.68 42 -151 42 C-151 41.34 -151 40.68 -151 40 C-148.54 37.45 -145.72 35.27 -143 33 C-142.2 32.3 -141.4 31.61 -140.58 30.89 C-116.13 10.03 -89.17 2.74 -58 -2 C-56.89 -2.18 -55.78 -2.36 -54.63 -2.54 C-37.24 -4.74 -16.94 -4.54 0 0 Z M-62 85 C-62.83 85.27 -63.66 85.53 -64.51 85.81 C-81.56 91.82 -94.19 106.13 -102 122 C-108.74 137.5 -108.95 156.28 -103.22 172.17 C-96.4 188.64 -84.49 201.03 -68 208 C-67.56 208.2 -67.56 208.2 -65.32 209.2 C-51.32 214.51 -33.48 214.31 -19.77 208.34 C-18.85 207.9 -17.94 207.46 -17 207 C-16.25 206.7 -15.5 206.4 -14.73 206.09 C-8.47 203.43 -3.85 198.65 1 194 C1.67 193.4 2.33 192.8 3.02 192.18 C7.52 187.97 10.26 183.48 13 178 C13.36 177.36 13.72 176.73 14.09 176.07 C21.27 163 23.02 145.52 19.08 131.19 C15.61 120.93 11.42 109.33 3 102 C2.34 102 1.68 102 1 102 C1 101.34 1 100.68 1 100 C-12.18 87.75 -29.17 81.36 -47.03 81.75 C-52.36 82.09 -56.99 83.2 -62 85 Z " fill="#107FDD" transform="translate(238,45)"/>
<path d="M0 0 C5.46 3.45 10.18 7.76 14.86 12.18 C15.11 12.41 15.11 12.41 16.38 13.57 C37.16 32.7 44.99 59.79 47.86 87.18 C47.97 88.16 48.09 89.14 48.2 90.16 C49.39 103.11 48.95 116.19 48.86 129.18 C48.2 128.85 47.54 128.52 46.86 128.18 C46.37 126.3 45.97 124.4 45.61 122.49 C43.34 112.05 39.4 102.64 32.86 94.18 C32.86 93.52 32.86 92.86 32.86 92.18 C31.87 91.85 30.88 91.52 29.86 91.18 C29.86 90.52 29.86 89.86 29.86 89.18 C29.2 89.18 28.54 89.18 27.86 89.18 C27.86 88.52 27.86 87.86 27.86 87.18 C27.29 86.91 26.72 86.65 26.14 86.38 C23.71 85.1 21.68 83.59 19.49 81.93 C13.38 77.6 6.84 74.82 -0.14 72.18 C-0.83 71.91 -1.53 71.64 -2.25 71.36 C-12.59 68.09 -25.16 69.59 -35.14 73.18 C-35.96 73.44 -36.79 73.71 -37.64 73.99 C-54.37 79.89 -66.48 93.63 -74.14 109.18 C-75.22 111.82 -76.19 114.48 -77.14 117.18 C-77.8 117.18 -78.46 117.18 -79.14 117.18 C-79.31 117.7 -79.48 118.22 -79.65 118.76 C-79.77 119.13 -79.77 119.13 -80.39 120.99 C-80.52 121.41 -80.52 121.41 -81.22 123.52 C-81.8 125.21 -82.42 126.89 -83.09 128.56 C-94.17 156.54 -94.83 190.36 -83.14 218.18 C-68.47 250.55 -44.46 271.34 -11.5 283.89 C0.64 287.74 12.18 288.59 24.8 288.36 C26.27 288.35 27.75 288.34 29.22 288.32 C32.77 288.29 36.32 288.24 39.86 288.18 C36.43 290.46 33.03 291.48 29.11 292.61 C28.44 292.82 27.77 293.02 27.08 293.23 C13.7 297.16 1.04 298.73 -12.82 298.61 C-13.61 298.61 -14.4 298.61 -15.22 298.6 C-27.58 298.53 -39.23 297.73 -51.14 294.18 C-51.98 293.94 -52.82 293.69 -53.68 293.45 C-71.33 288.28 -88.29 281.15 -103.14 270.18 C-103.92 269.6 -104.7 269.03 -105.51 268.44 C-111.36 264.02 -116.78 259.17 -122.14 254.18 C-122.93 253.46 -123.72 252.75 -124.53 252.01 C-150.7 227.37 -169.21 187.41 -170.36 151.46 C-171.49 107.01 -159.69 66.19 -128.89 33.14 C-127.14 31.18 -127.14 31.18 -126.14 29.18 C-125.48 29.18 -124.82 29.18 -124.14 29.18 C-124.14 28.52 -124.14 27.86 -124.14 27.18 C-121.67 24.63 -118.85 22.45 -116.14 20.18 C-115.74 19.83 -115.74 19.83 -113.72 18.07 C-96.6 3.46 -77.1 -6.16 -55.14 -10.82 C-54.5 -11 -53.85 -11.17 -53.19 -11.35 C-34.99 -15.54 -15.64 -9.08 0 0 Z " fill="#F62C2A" transform="translate(211.13623046875,57.82275390625)"/>
<path d="M0 0 C0.33 0.66 0.66 1.32 1 2 C0.12 2.04 -0.77 2.07 -1.68 2.11 C-9.5 2.54 -16.57 3.5 -24 6 C-24.42 6.13 -24.42 6.13 -26.52 6.8 C-43.24 12.75 -55.33 26.43 -63 42 C-64.09 44.64 -65.05 47.3 -66 50 C-66.66 50 -67.32 50 -68 50 C-68.17 50.52 -68.34 51.04 -68.52 51.58 C-68.64 51.95 -68.64 51.95 -69.25 53.81 C-69.39 54.23 -69.39 54.23 -70.08 56.34 C-70.67 58.03 -71.29 59.72 -71.95 61.38 C-83.03 89.36 -83.7 123.19 -72 151 C-57.33 183.37 -33.33 204.16 -0.37 216.71 C11.77 220.56 23.32 221.42 35.94 221.19 C37.41 221.17 38.88 221.16 40.36 221.15 C43.91 221.11 47.45 221.06 51 221 C47.57 223.29 44.16 224.3 40.25 225.44 C39.58 225.64 38.91 225.85 38.21 226.06 C24.83 229.98 12.18 231.55 -1.69 231.44 C-2.48 231.43 -3.27 231.43 -4.08 231.43 C-16.44 231.35 -28.09 230.55 -40 227 C-40.84 226.76 -41.68 226.52 -42.54 226.27 C-60.19 221.1 -77.15 213.98 -92 203 C-92.39 202.71 -92.39 202.71 -94.38 201.26 C-100.22 196.85 -105.64 191.99 -111 187 C-111.79 186.29 -112.58 185.57 -113.4 184.84 C-121.52 177.19 -127.78 168.22 -134 159 C-134.67 158.02 -135.33 157.04 -136.02 156.03 C-142.3 145.75 -144.61 131.94 -145 120 C-145.03 119.34 -145.05 118.68 -145.08 118 C-146.32 81.86 -136.2 52.17 -111.42 25.43 C-98.43 12.4 -83.51 2.84 -65.89 -2.43 C-64.25 -2.93 -62.62 -3.46 -61 -3.99 C-41.28 -9.87 -18.9 -7.5 0 0 Z " fill="#FCB317" transform="translate(200,125)"/>
<path d="M0 0 C0.37 0 0.37 0 2.26 0.01 C13.18 0.06 23.53 0.47 34.12 3.31 C34.89 3.51 35.65 3.7 36.44 3.9 C57.57 9.31 80.11 19.02 96.12 34.31 C96.12 34.97 96.12 35.63 96.12 36.31 C96.42 36.45 96.42 36.45 97.91 37.12 C101.62 39.12 104.34 42.12 107.31 45.06 C107.95 45.67 108.6 46.28 109.26 46.91 C113.03 50.64 114.71 52.86 115.12 58.31 C115.9 60.81 116.7 63.28 117.56 65.75 C126.37 91.28 126.52 119.16 114.88 144 C113.67 146.46 112.41 148.89 111.12 151.31 C110.8 151.92 110.48 152.53 110.15 153.16 C105.9 161.19 101.11 168.44 95.12 175.31 C94.43 176.13 93.73 176.95 93.01 177.8 C74.13 199.43 48.23 215.7 19.12 218.31 C0.63 219.24 0.63 219.24 -6.88 217.31 C-4.47 214.9 -3.56 214.98 -0.25 214.56 C11.39 212.59 22.48 208.51 31.12 200.31 C31.98 199.54 32.83 198.76 33.71 197.96 C39.1 192.86 42.95 188 46.12 181.31 C46.48 180.68 46.84 180.05 47.2 179.39 C63.31 150.24 56.51 104.15 48.38 73.31 C40.91 48.4 26.62 28.65 3.93 15.45 C-8.49 8.83 -21.73 4.61 -35.88 4.31 C-26.13 -1.42 -11.02 -0.06 0 0 Z " fill="#20AE3D" transform="translate(203.875,41.6875)"/>
<path d="M0 0 C0.66 0 1.32 0 2 0 C3.29 1.46 3.29 1.46 4.62 3.38 C5.07 4 5.52 4.63 5.98 5.27 C7 7 7 7 7 9 C7.66 9 8.32 9 9 9 C10.13 10.43 10.13 10.43 11.36 12.45 C11.81 13.19 12.26 13.93 12.73 14.69 C13.21 15.49 13.69 16.3 14.19 17.12 C14.68 17.94 15.17 18.76 15.68 19.61 C35.33 52.61 44.24 90.88 37 129 C36.85 129.79 36.7 130.59 36.54 131.41 C33.92 144.68 29.72 156.76 24 169 C23.47 170.15 22.94 171.31 22.4 172.5 C19.31 178.98 15.87 185.67 11 191 C10.01 191 9.02 191 8 191 C8 191.66 8 192.32 8 193 C7.02 194.02 6.02 195.02 5 196 C3.98 197.32 2.98 198.65 2 200 C1.01 199.67 0.02 199.34 -1 199 C-0.34 197.68 0.32 196.36 1 195 C-1.31 194.34 -3.62 193.68 -6 193 C-5.67 192.34 -5.34 191.68 -5 191 C-1.7 191 1.6 191 5 191 C4.98 189.89 4.96 188.77 4.94 187.62 C5 184 5 184 6 182 C5.34 182 4.68 182 4 182 C2.71 180.54 2.71 180.54 1.38 178.62 C0.93 178 0.48 177.37 0.02 176.73 C-1 175 -1 175 -1 173 C-1.31 172.88 -1.31 172.88 -2.88 172.25 C-5 171 -5 171 -6 168.94 C-6.17 168.62 -6.17 168.62 -7 167 C-7.33 166.93 -7.33 166.93 -9 166.56 C-9.66 166.38 -10.32 166.19 -11 166 C-11.71 164.35 -12.37 162.68 -13 161 C-15.13 158.69 -15.13 158.69 -17 157 C-17.33 157.99 -17.66 158.98 -18 160 C-17.34 160 -16.68 160 -16 160 C-16 161.98 -16 163.96 -16 166 C-16.66 166 -17.32 166 -18 166 C-18 165.34 -18 164.68 -18 164 C-18.74 163.96 -19.49 163.92 -20.25 163.88 C-24.14 162.64 -25.05 160.48 -27 157 C-27.33 156.01 -27.66 155.02 -28 154 C-28.8 153.69 -29.61 153.38 -30.44 153.06 C-33.5 151.79 -33.69 150.91 -35 148 C-35.99 147.67 -36.98 147.34 -38 147 C-38 146.01 -38 145.02 -38 144 C-38.66 143.34 -39.32 142.68 -40 142 C-37.75 138.9 -35.36 136.38 -32.44 133.94 C-22.34 125.23 -14.75 115.42 -8 104 C-7.45 103.06 -6.89 102.13 -6.32 101.16 C2.47 85.66 8.3 68.92 9 51 C9.05 50.06 9.1 49.12 9.16 48.14 C9.35 41.53 8.74 35.2 7.69 28.69 C7.57 27.95 7.45 27.21 7.33 26.44 C6.44 21.36 4.92 16.78 3 12 C2.27 10 1.54 8 0.81 6 C0.47 5.05 0.12 4.1 -0.23 3.12 C-0.48 2.42 -0.74 1.72 -1 1 C-0.67 0.67 -0.34 0.34 0 0 Z " fill="#078C83" transform="translate(318,96)"/>
<path d="M0 0 C2 1 2 1 4 4 C3.48 7.52 3.48 7.52 2 9 C2.59 9.64 3.18 10.28 3.79 10.94 C9.85 17.92 9.85 17.92 10.31 21.22 C10 23.12 10 23.12 9 26 C7.35 26 5.7 26 4 26 C3.75 25.05 3.5 24.1 3.25 23.12 C2 20 2 20 -0.12 18.62 C-0.74 18.42 -1.36 18.21 -2 18 C-2 17.34 -2 16.68 -2 16 C-2.64 15.86 -3.28 15.71 -3.94 15.56 C-6 15 -6 15 -7 14 C-9.33 13.96 -11.67 13.96 -14 14 C-14 15.65 -14 17.3 -14 19 C-17.38 20.04 -20.48 20.08 -24 20 C-23.67 19.01 -23.34 18.02 -23 17 C-24.65 17 -26.3 17 -28 17 C-24.41 14.01 -20.44 12.18 -16.25 10.19 C-10.31 7.3 -5.1 4.25 0 0 Z " fill="#0F85C6" transform="translate(277,237)"/>
<path d="M0 0 C0.66 0.33 1.32 0.66 2 1 C-3.16 8.39 -8.47 15.75 -15 22 C-15.66 22 -16.32 22 -17 22 C-17.21 22.56 -17.43 23.12 -17.65 23.7 C-19.47 26.8 -21.82 28.53 -24.62 30.75 C-25.63 31.55 -26.63 32.35 -27.66 33.17 C-28.43 33.78 -29.21 34.38 -30 35 C-31.62 31.75 -30.95 28.44 -30 25 C-28.25 23.81 -28.25 23.81 -26 23 C-22.4 20.16 -20.75 18.19 -20.19 13.69 C-20.16 13.08 -20.16 13.08 -20 10 C-18.02 10.99 -16.04 11.98 -14 13 C-13.44 12.38 -12.89 11.76 -12.31 11.12 C-10 9 -10 9 -7.38 8.06 C-5 7 -5 7 -3.69 4.38 C-3.46 3.59 -3.23 2.81 -3 2 C-2.01 2 -1.02 2 0 2 C0 1.34 0 0.68 0 0 Z " fill="#147DBF" transform="translate(326,287)"/>
<path d="M0 0 C1.91 2.86 2.44 4.29 3.06 7.56 C3.22 8.35 3.37 9.13 3.54 9.94 C6.17 27.27 6.27 45.77 3 63 C2.92 63.4 2.92 63.4 2.54 65.41 C0.05 78 -3.85 89.48 -9.17 101.14 C-10.18 103.4 -11.11 105.69 -12 108 C-13.07 105.28 -13.1 104.24 -11.97 101.48 C-11.48 100.58 -11 99.68 -10.5 98.75 C-7.96 93.48 -7.39 90.62 -9 85 C-10.56 83 -10.56 83 -12 82 C-11.83 81.67 -11.83 81.67 -11 80 C-10.22 80.5 -9.43 80.99 -8.62 81.5 C-6 83 -6 83 -4 83 C-4.33 80.36 -4.66 77.72 -5 75 C-4.5 74.84 -4.5 74.84 -2 74 C-2 72.35 -2 70.7 -2 69 C-1.34 69 -0.68 69 0 69 C1.21 60.48 2.18 52.22 2 43.6 C2 41.31 2.17 39.2 2.5 36.94 C3.13 31.94 3.08 27.03 3 22 C2.34 22 1.68 22 1 22 C1.02 21.01 1.04 20.02 1.06 19 C1.07 16.28 0.87 13.69 0.5 11 C-0.01 7.29 -0.08 3.74 0 0 Z " fill="#11817D" transform="translate(352,162)"/>
<path d="M0 0 C-3.43 2.29 -6.84 3.3 -10.75 4.44 C-11.42 4.64 -12.09 4.85 -12.79 5.06 C-25.65 8.83 -37.79 10.48 -51.13 10.34 C-53.53 10.31 -55.92 10.32 -58.32 10.32 C-59.87 10.32 -61.42 10.31 -62.97 10.3 C-63.32 10.3 -63.32 10.3 -65.1 10.3 C-69.78 10.24 -73.6 9.44 -78 8 C-74.65 6.75 -71.88 7.24 -68.41 7.73 C-60.89 8.56 -54.23 8.24 -47 6 C-32.01 3.99 -32.01 3.99 -28 6 C-27.67 5.34 -27.34 4.68 -27 4 C-26.69 4.01 -26.69 4.01 -25.14 4.04 C-24.73 4.04 -24.73 4.04 -22.69 4.06 C-21.89 4.07 -21.09 4.09 -20.26 4.1 C-18 4 -18 4 -15 3 C-15.56 3.02 -15.56 3.02 -18.38 3.12 C-22 3 -22 3 -24 1 C-21.31 0.83 -18.63 0.66 -15.94 0.5 C-15.56 0.48 -15.56 0.48 -13.66 0.36 C-9.1 0.08 -4.57 -0.05 0 0 Z " fill="#F0AB21" transform="translate(251,346)"/>
<path d="M0 0 C9.15 6.91 13.74 16.04 18.38 26.31 C18.72 27.08 19.07 27.84 19.42 28.63 C21.22 32.75 22.5 36.48 23 41 C20.04 38.24 17.96 35.53 16 32 C15.67 32.16 15.67 32.16 14 33 C13.35 28.28 12.88 23.78 13 19 C11.02 19 9.04 19 7 19 C6.67 17.02 6.34 15.04 6 13 C4.35 12.67 2.7 12.34 1 12 C1 10.02 1 8.04 1 6 C0.34 6 -0.32 6 -1 6 C-1.04 4.33 -1.04 2.67 -1 1 C-0.67 0.67 -0.34 0.34 0 0 Z " fill="#E02C24" transform="translate(230,75)"/>
<path d="M0 0 C0.66 0 1.32 0 2 0 C1.67 1.32 1.34 2.64 1 4 C-0.65 4 -2.3 4 -4 4 C-3.9 4.93 -3.79 5.86 -3.69 6.81 C-3.74 7.34 -3.74 7.34 -4 10 C-4.4 10.21 -4.4 10.21 -6.44 11.25 C-9 13 -9 13 -9.55 15.4 C-9.79 17.94 -9.95 20.45 -10 23 C-12.76 23.6 -15.16 24 -18 24 C-16.59 19.26 -14.58 15.08 -12.12 10.81 C-11.96 10.5 -11.96 10.5 -11.1 8.95 C-9.16 5.55 -7.45 2.93 -4 1 C-1.75 1.31 -1.75 1.31 0 2 C0 1.34 0 0.68 0 0 Z " fill="#EF3230" transform="translate(73,109)"/>
<path d="M0 0 C1.91 2.86 2.44 4.29 3.06 7.56 C3.22 8.35 3.37 9.13 3.54 9.94 C4.8 18.28 5.16 26.5 5.12 34.94 C5.13 35.94 5.13 36.95 5.14 37.99 C5.13 44.71 4.72 51.32 4 58 C0.56 51.67 1.5 43.86 2.5 36.88 C3.14 31.9 3.08 27.01 3 22 C2.34 22 1.68 22 1 22 C1.02 21.01 1.04 20.02 1.06 19 C1.07 16.28 0.87 13.69 0.5 11 C-0.01 7.29 -0.08 3.74 0 0 Z " fill="#158D5F" transform="translate(352,162)"/>
<path d="M0 0 C2.95 12.94 5.49 25.66 5 39 C4.34 39.16 4.34 39.16 1 40 C1.01 39.69 1.01 39.69 1.03 38.11 C1.07 35.24 1.1 32.37 1.12 29.5 C1.14 28.52 1.16 27.54 1.18 26.52 C1.22 20.62 0.63 15.67 -1 10 C-1.12 7 -1.12 7 -1 5 C-1.66 5 -2.32 5 -3 5 C-3.33 3.68 -3.66 2.36 -4 1 C-1 0 -1 0 0 0 Z " fill="#C23520" transform="translate(254,117)"/>
<path d="M0 0 C2.14 3.2 2.23 4.02 2.12 7.69 C2.11 8.5 2.09 9.3 2.07 10.14 C2.06 10.44 2.06 10.44 2 12 C1.67 12.16 1.67 12.16 0 13 C0.23 13.91 0.45 14.81 0.69 15.75 C1 19 1 19 -0.44 21.38 C-0.95 21.91 -1.47 22.45 -2 23 C-2.33 22.67 -2.66 22.34 -3 22 C-3.99 28.27 -4.98 34.54 -6 41 C-6.33 41 -6.66 41 -7 41 C-6.64 26.88 -4.7 13.38 0 0 Z " fill="#F0372F" transform="translate(48,149)"/>
<path d="M0 0 C0.33 0 0.66 0 1 0 C1.12 1 1.24 2 1.37 3.04 C1.54 4.38 1.71 5.72 1.88 7.06 C1.95 7.72 2.03 8.38 2.11 9.05 C2.55 12.45 3.14 15.45 4.13 18.75 C4.99 21.97 4.94 22.96 4 26 C2.63 23.4 1.28 20.8 -0.06 18.19 C-0.26 17.82 -0.26 17.82 -1.24 15.95 C-1.61 15.24 -1.97 14.53 -2.35 13.79 C-2.69 13.14 -3.03 12.48 -3.38 11.81 C-4 10 -4 10 -3 7 C-2.34 6.34 -1.68 5.68 -1 5 C-0.38 2.38 -0.38 2.38 0 0 Z " fill="#E93B20" transform="translate(55,245)"/>
<path d="M0 0 C0.66 0.33 1.32 0.66 2 1 C0.57 2.46 -0.87 3.92 -2.31 5.38 C-3.11 6.19 -3.91 7 -4.74 7.84 C-7 10 -7 10 -10 12 C-10 13.32 -10 14.64 -10 16 C-10.99 16.33 -11.98 16.66 -13 17 C-18.03 19.11 -21.38 23.04 -25 27 C-25 23.26 -24.07 22.55 -21.62 19.81 C-21 19.1 -20.37 18.38 -19.73 17.64 C-18 16 -18 16 -16 16 C-16 15.34 -16 14.68 -16 14 C-14.53 12.52 -14.53 12.52 -12.5 10.81 C-11.78 10.2 -11.06 9.59 -10.31 8.95 C-9.55 8.31 -8.79 7.66 -8 7 C-6.5 5.69 -5 4.38 -3.5 3.06 C-2.33 2.04 -1.17 1.02 0 0 Z " fill="#F6392E" transform="translate(103,71)"/>
<path d="M0 0 C0.66 0 1.32 0 2 0 C3.29 1.46 3.29 1.46 4.62 3.38 C4.85 3.69 4.85 3.69 5.98 5.27 C7 7 7 7 7 9 C7.66 9 8.32 9 9 9 C9.66 10.32 10.32 11.64 11 13 C10.67 13.16 10.67 13.16 9 14 C8.01 13.01 7.02 12.02 6 11 C6.33 13.31 6.66 15.62 7 18 C6.34 18.33 5.68 18.66 5 19 C3 13 1 7 -1 1 C-0.67 0.67 -0.34 0.34 0 0 Z " fill="#0F9258" transform="translate(318,96)"/>
<path d="M0 0 C1.65 0 3.3 0 5 0 C5 0.66 5 1.32 5 2 C6.32 2 7.64 2 9 2 C12.74 2.47 15.72 3.11 19 5 C19 6.65 19 8.3 19 10 C14.37 8.61 10.35 6.7 6.12 4.38 C4.97 3.74 3.82 3.11 2.63 2.46 C2.2 2.22 2.2 2.22 0 1 C0 0.67 0 0.34 0 0 Z " fill="#227AC4" transform="translate(169,327)"/>
<path d="M0 0 C-2.6 1.53 -5.2 3.05 -7.81 4.56 C-8.55 5 -9.29 5.44 -10.05 5.89 C-10.76 6.3 -11.47 6.71 -12.21 7.13 C-12.53 7.32 -12.53 7.32 -14.19 8.29 C-16 9 -16 9 -19 8 C-17.68 7.67 -16.36 7.34 -15 7 C-15 5.02 -15 3.04 -15 1 C-13.06 0.64 -11.13 0.28 -9.19 -0.06 C-8.11 -0.26 -7.03 -0.46 -5.92 -0.66 C-3 -1 -3 -1 0 0 Z " fill="#2379C1" transform="translate(284,331)"/>
<path d="M0 0 C3 1 4.03 1.65 6 4 C6 4.66 6 5.32 6 6 C7.65 6 9.3 6 11 6 C11.86 7.45 12.72 8.91 13.56 10.38 C13.8 10.78 13.8 10.78 15 12.84 C15.17 13.19 15.17 13.19 16 15 C15.67 15.66 15.34 16.32 15 17 C12.49 14.55 9.99 12.09 7.5 9.62 C6.78 8.93 6.07 8.23 5.33 7.51 C4.66 6.84 3.98 6.17 3.28 5.48 C2.65 4.86 2.02 4.24 1.38 3.6 C0 2 0 2 0 0 Z " fill="#1A79CD" transform="translate(144,303)"/>
<path d="M0 0 C0.33 0 0.66 0 1 0 C0.47 7.35 -0.13 14.68 -1 22 C-1.33 22 -1.66 22 -2 22 C-2.33 19.69 -2.66 17.38 -3 15 C-3.33 15.66 -3.66 16.32 -4 17 C-4.66 17 -5.32 17 -6 17 C-4.34 11.14 -2.53 5.54 0 0 Z " fill="#2B7CBF" transform="translate(132,175)"/>
<path d="M0 0 C-1 3 -1 3 -3 4 C-4.12 6.06 -4.12 6.06 -5 8 C-6.65 8 -8.3 8 -10 8 C-10.33 6.68 -10.66 5.36 -11 4 C-9.74 3.13 -8.46 2.28 -7.19 1.44 C-6.48 0.96 -5.77 0.49 -5.04 -0 C-3 -1 -3 -1 0 0 Z " fill="#EB332F" transform="translate(117,65)"/>
<path d="M0 0 C0.33 0 0.66 0 1 0 C1.33 4.29 1.66 8.58 2 13 C2.33 13 2.66 13 3 13 C2.93 15.02 2.87 17.04 2.8 19.05 C3 21 3 21 5 23 C5 23.99 5 24.98 5 26 C3.68 26.33 2.36 26.66 1 27 C-0.15 17.98 -0.09 9.07 0 0 Z " fill="#227CC7" transform="translate(119,225)"/>
<path d="M0 0 C1.98 0 3.96 0 6 0 C5.5 3.19 4.67 6.2 3.62 9.25 C3.39 9.94 3.16 10.62 2.91 11.33 C2 13 2 13 -1 14 C-1 13.34 -1 12.68 -1 12 C-0.34 12 0.32 12 1 12 C1.2 8.28 1.15 7.23 -1 4 C-0.62 1.81 -0.62 1.81 0 0 Z " fill="#EBB02B" transform="translate(132,162)"/>
<path d="M0 0 C4.39 3.27 8.75 6.55 13 10 C12.67 10.66 12.34 11.32 12 12 C10.02 12 8.04 12 6 12 C5 7.25 5 7.25 5 5 C4.01 5 3.02 5 2 5 C1.34 3.35 0.68 1.7 0 0 Z " fill="#E7B430" transform="translate(156,317)"/>
<path d="M0 0 C0.33 0.66 0.66 1.32 1 2 C1.66 2 2.32 2 3 2 C3.66 5.63 4.32 9.26 5 13 C3.35 13.33 1.7 13.66 0 14 C0 9.38 0 4.76 0 0 Z " fill="#EC2423" transform="translate(250,120)"/>
<path d="M0 0 C2.64 0 5.28 0 8 0 C8.33 1.65 8.66 3.3 9 5 C7 6 7 6 5.05 5.44 C4.34 5.15 3.62 4.86 2.88 4.56 C2.15 4.28 1.43 3.99 0.68 3.69 C0.4 3.58 0.4 3.58 -1 3 C-0.67 2.01 -0.34 1.02 0 0 Z " fill="#F7AF20" transform="translate(150,345)"/>
<path d="M0 0 C0.54 0.13 1.07 0.27 1.62 0.4 C9.7 2.22 17.76 2.61 26 3 C26 3.33 26 3.66 26 4 C23.17 4.28 20.34 4.52 17.5 4.75 C16.71 4.83 15.92 4.91 15.1 5 C8.9 5.45 5.35 4.16 0 1 C0 0.67 0 0.34 0 0 Z " fill="#3086BF" transform="translate(173,254)"/>
<path d="M0 0 C1.81 6.51 1.26 11.75 -1 18 C-1.38 20.33 -1.72 22.66 -2 25 C-2.33 25 -2.66 25 -3 25 C-3.48 16.28 -2.07 8.45 0 0 Z " fill="#237BC8" transform="translate(123,200)"/>
<path d="M0 0 C0.66 0.33 1.32 0.66 2 1 C0.92 2.92 -0.16 4.84 -1.25 6.75 C-1.85 7.82 -2.46 8.88 -3.08 9.98 C-4.84 12.74 -6.59 14.81 -9 17 C-7.63 13.46 -6.09 10.07 -4.38 6.69 C-4.15 6.25 -4.15 6.25 -3.02 4.01 C-2.69 3.35 -2.35 2.68 -2 2 C-1.34 2 -0.68 2 0 2 C0 1.34 0 0.68 0 0 Z " fill="#158383" transform="translate(337,270)"/>
<path d="M0 0 C6.88 3.62 6.88 3.62 8 7 C10.06 8.19 10.06 8.19 12 9 C9 10 9 10 6.56 8.81 C4.05 7.04 1.98 5.35 0 3 C0 2.01 0 1.02 0 0 Z " fill="#32A047" transform="translate(292,71)"/>
<path d="M0 0 C0.93 0.01 1.85 0.01 2.81 0.02 C5.48 0.18 7.96 0.6 10.56 1.19 C10.56 1.52 10.56 1.85 10.56 2.19 C8.35 2.38 6.15 2.57 3.94 2.75 C2.71 2.85 1.48 2.96 0.21 3.07 C-3.19 3.18 -6.11 2.88 -9.44 2.19 C-6.18 0.25 -3.77 -0.06 0 0 Z " fill="#1881D0" transform="translate(191.4375,257.8125)"/>
<path d="M0 0 C2.5 1 2.5 1 4 2 C4 2.66 4 3.32 4 4 C2.42 3.89 0.83 3.76 -0.75 3.62 C-1.63 3.56 -2.51 3.49 -3.42 3.41 C-5.99 3 -7.76 2.29 -10 1 C-6.83 -0.58 -3.46 -0.29 0 0 Z " fill="#3178AE" transform="translate(214,342)"/>
<path d="M0 0 C0.66 0.33 1.32 0.66 2 1 C0.74 2.8 -0.54 4.59 -1.81 6.38 C-2.52 7.37 -3.23 8.37 -3.96 9.4 C-6 12 -6 12 -9 14 C-9 13.01 -9 12.02 -9 11 C-8.34 11 -7.68 11 -7 11 C-5.48 8.06 -4.2 5.08 -3 2 C-2.01 2 -1.02 2 0 2 C0 1.34 0 0.68 0 0 Z " fill="#1B80A8" transform="translate(326,287)"/>
<path d="M0 0 C2.31 0 4.62 0 7 0 C7 0.66 7 1.32 7 2 C7.99 2.33 8.98 2.66 10 3 C8.51 3.17 8.51 3.17 1 4 C0.67 2.68 0.34 1.36 0 0 Z " fill="#1688C6" transform="translate(223,259)"/>
<path d="M0 0 C3.26 3.17 6.22 6.4 9 10 C7.68 10 6.36 10 5 10 C4.34 8.35 3.68 6.7 3 5 C2.34 5 1.68 5 1 5 C0.67 3.35 0.34 1.7 0 0 Z " fill="#2782D0" transform="translate(142,231)"/>
<path d="M0 0 C1.44 0.11 2.88 0.24 4.31 0.38 C4.71 0.41 4.71 0.41 6.74 0.59 C9 1 9 1 12 3 C7.74 4.16 4.32 3.76 0 3 C0 2.01 0 1.02 0 0 Z " fill="#D83A30" transform="translate(176,46)"/>
<path d="M0 0 C0.66 0 1.32 0 2 0 C1.37 3.22 0.22 5.51 -1.56 8.25 C-2.02 8.96 -2.47 9.66 -2.94 10.39 C-3.29 10.92 -3.64 11.45 -4 12 C-5 9 -5 9 -4 6 C-3.34 6 -2.68 6 -2 6 C-1.34 4.02 -0.68 2.04 0 0 Z " fill="#F6B120" transform="translate(143,151)"/>
<path d="M0 0 C0.82 0.17 0.82 0.17 5 1 C5 2.32 5 3.64 5 5 C3.68 4.67 2.36 4.34 1 4 C0.67 2.68 0.34 1.36 0 0 Z " fill="#1C7BCE" transform="translate(183,332)"/>
<path d="M0 0 C0.99 0.33 1.98 0.66 3 1 C3.33 1.99 3.66 2.98 4 4 C3.34 4.33 3.34 4.33 0 6 C0 4.02 0 2.04 0 0 Z " fill="#F3B624" transform="translate(162,329)"/>
</svg>
